<svg xmlns="http://www.w3.org/2000/svg" width="82" height="79" viewBox="0 0 82 79">
  <g id="expert-instructor" transform="translate(-74 -739)">
    <rect id="Rectangle_2" data-name="Rectangle 2" width="82" height="79" rx="3" transform="translate(74 739)" fill="#e1dfed"/>
    <path id="Icon_material-library-books" data-name="Icon material-library-books" d="M8.367,12.567h-4.2v29.4a4.212,4.212,0,0,0,4.2,4.2h29.4v-4.2H8.367Zm33.6-8.4h-25.2a4.212,4.212,0,0,0-4.2,4.2v25.2a4.212,4.212,0,0,0,4.2,4.2h25.2a4.212,4.212,0,0,0,4.2-4.2V8.367a4.212,4.212,0,0,0-4.2-4.2Zm-2.1,18.9h-21v-4.2h21v4.2Zm-8.4,8.4h-12.6v-4.2h12.6Zm8.4-16.8h-21v-4.2h21v4.2Z" transform="translate(89.833 753.833)" fill="#4b3c99"/>
  </g>
</svg>
