<svg xmlns="http://www.w3.org/2000/svg" width="82" height="79" viewBox="0 0 82 79">
  <g id="lifetime-access" transform="translate(-379 -722)">
    <rect id="Rectangle_4" data-name="Rectangle 4" width="82" height="79" rx="3" transform="translate(379 722)" fill="#e1dfed"/>
    <path id="Icon_simple-f-secure" data-name="Icon simple-f-secure" d="M41.854,5.431a62.865,62.865,0,0,0-38.9-1.05A3.883,3.883,0,0,0,.119,9.192,64.169,64.169,0,0,0,3.058,18.13c.017.07.052.035.052-.035a3.763,3.763,0,0,1,2.939-3.726,48.207,48.207,0,0,1,30.418.4,2.871,2.871,0,0,0,3.673-1.854,61.837,61.837,0,0,0,1.837-7.277C41.994,5.518,41.889,5.466,41.854,5.431ZM11.629,14.089a49.5,49.5,0,0,0-5.143,1.329,3.6,3.6,0,0,0-1.312,6.07,3.016,3.016,0,0,1,1.714-1.977,35.419,35.419,0,0,1,9.83-2.256,17.837,17.837,0,0,1-5.073-3.166m24.786,7.591A37.012,37.012,0,0,0,7.658,20.544a2.852,2.852,0,0,0-1.487,4.076,66.748,66.748,0,0,0,5.51,8.4A3.033,3.033,0,0,1,13.9,29.5a23.605,23.605,0,0,1,15.148.577,2.908,2.908,0,0,0,3.481-1.119,67.553,67.553,0,0,0,4.006-7.032c.052-.1,0-.192-.1-.245M27.493,35.272a17.352,17.352,0,0,1-4.373-3.148c-.595-.595-1.469-1.452-2.4-2.466a20.174,20.174,0,0,0-6.332.91,2.732,2.732,0,0,0-1.329,4.2A58.57,58.57,0,0,0,17.3,39.382a4.793,4.793,0,0,0,6.682.035c1.312-1.312,2.116-2.186,3.6-3.866a.167.167,0,0,0-.087-.28" transform="translate(399.021 740.203)" fill="#2ac24e"/>
  </g>
</svg>
