<svg xmlns="http://www.w3.org/2000/svg" width="82" height="79" viewBox="0 0 82 79">
  <g id="online-courses" transform="translate(-240 -722)">
    <rect id="Rectangle_3" data-name="Rectangle 3" width="82" height="79" rx="3" transform="translate(240 722)" fill="#f8e3f6"/>
    <path id="Icon_awesome-laptop" data-name="Icon awesome-laptop" d="M40.95,27.3H25.039a2.069,2.069,0,0,1-2.149,2.1H18.9a2.229,2.229,0,0,1-2.151-2.1H1.05A1.053,1.053,0,0,0,0,28.35V29.4a4.212,4.212,0,0,0,4.2,4.2H37.8A4.212,4.212,0,0,0,42,29.4V28.35A1.053,1.053,0,0,0,40.95,27.3ZM37.8,3.15A3.159,3.159,0,0,0,34.65,0H7.35A3.159,3.159,0,0,0,4.2,3.15V25.2H37.8ZM33.6,21H8.4V4.2H33.6Z" transform="translate(260 745)" fill="#9e3bbc"/>
  </g>
</svg>
